<svg xmlns="http://www.w3.org/2000/svg" width="722.46826171875" height="665.3190307617188" viewBox="-357.10125732421875 -265.0721435546875 722.46826171875 665.3190307617188"><title>Neo4j Graph Visualization</title><desc>Created using Neo4j (http://www.neo4j.com/)</desc><g class="layer relationships"><g class="relationship" transform="translate(15.863132531362144 371.2468832255376) rotate(288.2583863365321)"><path class="outline" fill="#A5ABB6" stroke="none" d="M 25 0.5 L 44.98039023845895 0.5 L 44.98039023845895 -0.5 L 25 -0.5 Z M 90.54289023845895 0.5 L 110.5232804769179 0.5 L 110.5232804769179 3.5 L 117.5232804769179 0 L 110.5232804769179 -3.5 L 110.5232804769179 -0.5 L 90.54289023845895 -0.5 Z"/><text text-anchor="middle" pointer-events="none" font-size="8px" fill="#000000" x="67.76164023845895" y="3" font-family="sans-serif">ACTED_IN</text></g><g class="relationship" transform="translate(161.51514036143791 134.40632527929694) rotate(494.8602796412821)"><path class="outline" fill="#A5ABB6" stroke="none" d="M 25 0.5 L 45.31066809404513 0.5 L 45.31066809404513 -0.5 L 25 -0.5 Z M 90.87316809404513 0.5 L 111.18383618809025 0.5 L 111.18383618809025 3.5 L 118.18383618809025 0 L 111.18383618809025 -3.5 L 111.18383618809025 -0.5 L 90.87316809404513 -0.5 Z"/><text text-anchor="middle" pointer-events="none" font-size="8px" fill="#000000" x="68.09191809404513" y="3" transform="rotate(180 68.09191809404513 0)" font-family="sans-serif">ACTED_IN</text></g><g class="relationship" transform="translate(197.849846842172 280.66554731191604) rotate(198.05429234306035)"><path class="outline" fill="#A5ABB6" stroke="none" d="M 25 0.5 L 45.94165461971747 0.5 L 45.94165461971747 -0.5 L 25 -0.5 Z M 91.50415461971747 0.5 L 112.44580923943494 0.5 L 112.44580923943494 3.5 L 119.44580923943494 0 L 112.44580923943494 -3.5 L 112.44580923943494 -0.5 L 91.50415461971747 -0.5 Z"/><text text-anchor="middle" pointer-events="none" font-size="8px" fill="#000000" x="68.72290461971747" y="3" transform="rotate(180 68.72290461971747 0)" font-family="sans-serif">ACTED_IN</text></g><g class="relationship" transform="translate(336.36704485276005 -24.227646718097727) rotate(211.4110018465928)"><path class="outline" fill="#A5ABB6" stroke="none" d="M 25 0.5 L 45.66306472603816 0.5 L 45.66306472603816 -0.5 L 25 -0.5 Z M 91.22556472603816 0.5 L 111.88862945207632 0.5 L 111.88862945207632 3.5 L 118.88862945207632 0 L 111.88862945207632 -3.5 L 111.88862945207632 -0.5 L 91.22556472603816 -0.5 Z"/><text text-anchor="middle" pointer-events="none" font-size="8px" fill="#000000" x="68.44431472603816" y="3" transform="rotate(180 68.44431472603816 0)" font-family="sans-serif">ACTED_IN</text></g><g class="relationship" transform="translate(293.935907044338 -219.168641824399) rotate(483.82346474498286)"><path class="outline" fill="#A5ABB6" stroke="none" d="M 25 0.5 L 45.91201040950635 0.5 L 45.91201040950635 -0.5 L 25 -0.5 Z M 91.47451040950635 0.5 L 112.3865208190127 0.5 L 112.3865208190127 3.5 L 119.3865208190127 0 L 112.3865208190127 -3.5 L 112.3865208190127 -0.5 L 91.47451040950635 -0.5 Z"/><text text-anchor="middle" pointer-events="none" font-size="8px" fill="#000000" x="68.69326040950635" y="3" transform="rotate(180 68.69326040950635 0)" font-family="sans-serif">ACTED_IN</text></g><g class="relationship" transform="translate(76.09778780127034 -140.99578967389564) rotate(376.90435364535773)"><path class="outline" fill="#A5ABB6" stroke="none" d="M 25 0.5 L 45.55644983887481 0.5 L 45.55644983887481 -0.5 L 25 -0.5 Z M 91.11894983887481 0.5 L 111.67539967774962 0.5 L 111.67539967774962 3.5 L 118.67539967774962 0 L 111.67539967774962 -3.5 L 111.67539967774962 -0.5 L 91.11894983887481 -0.5 Z"/><text text-anchor="middle" pointer-events="none" font-size="8px" fill="#000000" x="68.33769983887481" y="3" font-family="sans-serif">ACTED_IN</text></g><g class="relationship" transform="translate(160.45005707503333 -236.07214792245105) rotate(428.7879430126326)"><path class="outline" fill="#A5ABB6" stroke="none" d="M 25 0.5 L 47.1185343725773 0.5 L 47.1185343725773 -0.5 L 25 -0.5 Z M 92.6810343725773 0.5 L 114.7995687451546 0.5 L 114.7995687451546 3.5 L 121.7995687451546 0 L 114.7995687451546 -3.5 L 114.7995687451546 -0.5 L 92.6810343725773 -0.5 Z"/><text text-anchor="middle" pointer-events="none" font-size="8px" fill="#000000" x="69.8997843725773" y="3" font-family="sans-serif">ACTED_IN</text></g><g class="relationship" transform="translate(-228.8700418256859 -85.2508765467243) rotate(279.7100693774198)"><path class="outline" fill="#A5ABB6" stroke="none" d="M 25 0.5 L 38.34772252541919 0.5 L 38.34772252541919 -0.5 L 25 -0.5 Z M 83.91022252541919 0.5 L 97.25794505083837 0.5 L 97.25794505083837 3.5 L 104.25794505083837 0 L 97.25794505083837 -3.5 L 97.25794505083837 -0.5 L 83.91022252541919 -0.5 Z"/><text text-anchor="middle" pointer-events="none" font-size="8px" fill="#000000" x="61.12897252541919" y="3" font-family="sans-serif">ACTED_IN</text></g><g class="relationship" transform="translate(-228.8700418256859 -85.2508765467243) rotate(478.7220586585877)"><path class="outline" fill="#A5ABB6" stroke="none" d="M 25 0.5 L 45.15900650227576 0.5 L 45.15900650227576 -0.5 L 25 -0.5 Z M 90.72150650227576 0.5 L 110.88051300455152 0.5 L 110.88051300455152 3.5 L 117.88051300455152 0 L 110.88051300455152 -3.5 L 110.88051300455152 -0.5 L 90.72150650227576 -0.5 Z"/><text text-anchor="middle" pointer-events="none" font-size="8px" fill="#000000" x="67.94025650227576" y="3" transform="rotate(180 67.94025650227576 0)" font-family="sans-serif">ACTED_IN</text></g><g class="relationship" transform="translate(-228.8700418256859 -85.2508765467243) rotate(438.66850903288594)"><path class="outline" fill="#A5ABB6" stroke="none" d="M 25 0.5 L 47.19262854500086 0.5 L 47.19262854500086 -0.5 L 25 -0.5 Z M 92.75512854500086 0.5 L 114.94775709000172 0.5 L 114.94775709000172 3.5 L 121.94775709000172 0 L 114.94775709000172 -3.5 L 114.94775709000172 -0.5 L 92.75512854500086 -0.5 Z"/><text text-anchor="middle" pointer-events="none" font-size="8px" fill="#000000" x="69.97387854500086" y="3" font-family="sans-serif">ACTED_IN</text></g><g class="relationship" transform="translate(-328.10125887877035 -87.85267273569893) rotate(314.1209077303778)"><path class="outline" fill="#A5ABB6" stroke="none" d="M 25 0.5 L 60.6453373011404 0.5 L 60.6453373011404 -0.5 L 25 -0.5 Z M 106.2078373011404 0.5 L 141.8531746022808 0.5 L 141.8531746022808 3.5 L 148.8531746022808 0 L 141.8531746022808 -3.5 L 141.8531746022808 -0.5 L 106.2078373011404 -0.5 Z"/><text text-anchor="middle" pointer-events="none" font-size="8px" fill="#000000" x="83.4265873011404" y="3" font-family="sans-serif">ACTED_IN</text></g><g class="relationship" transform="translate(-328.10125887877035 -87.85267273569893) rotate(436.5585801313324)"><path class="outline" fill="#A5ABB6" stroke="none" d="M 25 0.5 L 39.471063626867306 0.5 L 39.471063626867306 -0.5 L 25 -0.5 Z M 85.0335636268673 0.5 L 99.50462725373461 0.5 L 99.50462725373461 3.5 L 106.50462725373461 0 L 99.50462725373461 -3.5 L 99.50462725373461 -0.5 L 85.0335636268673 -0.5 Z"/><text text-anchor="middle" pointer-events="none" font-size="8px" fill="#000000" x="62.252313626867306" y="3" font-family="sans-serif">ACTED_IN</text></g><g class="relationship" transform="translate(-328.10125887877035 -87.85267273569893) rotate(408.8683602726827)"><path class="outline" fill="#A5ABB6" stroke="none" d="M 25 0.5 L 71.09329996924674 0.5 L 71.09329996924674 -0.5 L 25 -0.5 Z M 116.65579996924674 0.5 L 162.7490999384935 0.5 L 162.7490999384935 3.5 L 169.7490999384935 0 L 162.7490999384935 -3.5 L 162.7490999384935 -0.5 L 116.65579996924674 -0.5 Z"/><text text-anchor="middle" pointer-events="none" font-size="8px" fill="#000000" x="93.87454996924674" y="3" font-family="sans-serif">ACTED_IN</text></g><g class="relationship" transform="translate(-132.5057759794126 -61.25829446853807) rotate(243.779937836738)"><path class="outline" fill="#A5ABB6" stroke="none" d="M 25 0.5 L 58.10071941501805 0.5 L 58.10071941501805 -0.5 L 25 -0.5 Z M 103.66321941501805 0.5 L 136.7639388300361 0.5 L 136.7639388300361 3.5 L 143.7639388300361 0 L 136.7639388300361 -3.5 L 136.7639388300361 -0.5 L 103.66321941501805 -0.5 Z"/><text text-anchor="middle" pointer-events="none" font-size="8px" fill="#000000" x="80.88196941501805" y="3" transform="rotate(180 80.88196941501805 0)" font-family="sans-serif">ACTED_IN</text></g><g class="relationship" transform="translate(-132.5057759794126 -61.25829446853807) rotate(508.45475177213723)"><path class="outline" fill="#A5ABB6" stroke="none" d="M 25 0.5 L 70.5398079403539 0.5 L 70.5398079403539 -0.5 L 25 -0.5 Z M 116.1023079403539 0.5 L 161.6421158807078 0.5 L 161.6421158807078 3.5 L 168.6421158807078 0 L 161.6421158807078 -3.5 L 161.6421158807078 -0.5 L 116.1023079403539 -0.5 Z"/><text text-anchor="middle" pointer-events="none" font-size="8px" fill="#000000" x="93.3210579403539" y="3" transform="rotate(180 93.3210579403539 0)" font-family="sans-serif">ACTED_IN</text></g><g class="relationship" transform="translate(-132.5057759794126 -61.25829446853807) rotate(479.336078516961)"><path class="outline" fill="#A5ABB6" stroke="none" d="M 25 0.5 L 42.596976511257495 0.5 L 42.596976511257495 -0.5 L 25 -0.5 Z M 88.1594765112575 0.5 L 105.75645302251499 0.5 L 105.75645302251499 3.5 L 112.75645302251499 0 L 105.75645302251499 -3.5 L 105.75645302251499 -0.5 L 88.1594765112575 -0.5 Z"/><text text-anchor="middle" pointer-events="none" font-size="8px" fill="#000000" x="65.3782265112575" y="3" transform="rotate(180 65.3782265112575 0)" font-family="sans-serif">ACTED_IN</text></g><g class="relationship" transform="translate(-185.47178782821695 204.19595921491452) rotate(264.29375580273995)"><path class="outline" fill="#A5ABB6" stroke="none" d="M 25 0.5 L 46.76247996646018 0.5 L 46.76247996646018 -0.5 L 25 -0.5 Z M 92.32497996646018 0.5 L 114.08745993292035 0.5 L 114.08745993292035 3.5 L 121.08745993292035 0 L 114.08745993292035 -3.5 L 114.08745993292035 -0.5 L 92.32497996646018 -0.5 Z"/><text text-anchor="middle" pointer-events="none" font-size="8px" fill="#000000" x="69.54372996646018" y="3" transform="rotate(180 69.54372996646018 0)" font-family="sans-serif">ACTED_IN</text></g></g><g class="layer nodes"><g class="node" aria-label="graph-node105" transform="translate(60.516076768893406,235.89918265836087)"><circle class="outline" cx="0" cy="0" r="25" fill="#F79767" stroke="#f36924" stroke-width="2px"/><text class="caption" text-anchor="middle" pointer-events="none" x="0" y="0" font-size="10px" fill="#FFFFFF" font-family="sans-serif"> Cloud</text><text class="caption" text-anchor="middle" pointer-events="none" x="0" y="10" font-size="10px" fill="#FFFFFF" font-family="sans-serif"> Atlas</text></g><g class="node" aria-label="graph-node71" transform="translate(15.863132531362144,371.2468832255376)"><circle class="outline" cx="0" cy="0" r="25" fill="#C990C0" stroke="#b261a5" stroke-width="2px"/><text class="caption" text-anchor="middle" pointer-events="none" x="0" y="0" font-size="10px" fill="#FFFFFF" font-family="sans-serif"> Tom</text><text class="caption" text-anchor="middle" pointer-events="none" x="0" y="10" font-size="10px" fill="#FFFFFF" font-family="sans-serif"> Hanks</text></g><g class="node" aria-label="graph-node107" transform="translate(161.51514036143791,134.40632527929694)"><circle class="outline" cx="0" cy="0" r="25" fill="#C990C0" stroke="#b261a5" stroke-width="2px"/><text class="caption" text-anchor="middle" pointer-events="none" x="0" y="0" font-size="10px" fill="#FFFFFF" font-family="sans-serif"> Jim</text><text class="caption" text-anchor="middle" pointer-events="none" x="0" y="10" font-size="10px" fill="#FFFFFF" font-family="sans-serif"> Broad…</text></g><g class="node" aria-label="graph-node106" transform="translate(197.849846842172,280.66554731191604)"><circle class="outline" cx="0" cy="0" r="25" fill="#C990C0" stroke="#b261a5" stroke-width="2px"/><text class="caption" text-anchor="middle" pointer-events="none" x="0" y="0" font-size="10px" fill="#FFFFFF" font-family="sans-serif"> Halle</text><text class="caption" text-anchor="middle" pointer-events="none" x="0" y="10" font-size="10px" fill="#FFFFFF" font-family="sans-serif"> Berry</text></g><g class="node" aria-label="graph-node116" transform="translate(213.56518784556962,-99.21859017917497)"><circle class="outline" cx="0" cy="0" r="25" fill="#F79767" stroke="#f36924" stroke-width="2px"/><text class="caption" text-anchor="middle" pointer-events="none" x="0" y="0" font-size="10px" fill="#FFFFFF" font-family="sans-serif"> V for</text><text class="caption" text-anchor="middle" pointer-events="none" x="0" y="10" font-size="10px" fill="#FFFFFF" font-family="sans-serif"> Vende…</text></g><g class="node" aria-label="graph-node119" transform="translate(336.36704485276005,-24.227646718097727)"><circle class="outline" cx="0" cy="0" r="25" fill="#C990C0" stroke="#b261a5" stroke-width="2px"/><text class="caption" text-anchor="middle" pointer-events="none" x="0" y="5" font-size="10px" fill="#FFFFFF" font-family="sans-serif"> John Hurt</text></g><g class="node" aria-label="graph-node118" transform="translate(293.935907044338,-219.168641824399)"><circle class="outline" cx="0" cy="0" r="25" fill="#C990C0" stroke="#b261a5" stroke-width="2px"/><text class="caption" text-anchor="middle" pointer-events="none" x="0" y="0" font-size="10px" fill="#FFFFFF" font-family="sans-serif"> Stephen</text><text class="caption" text-anchor="middle" pointer-events="none" x="0" y="10" font-size="10px" fill="#FFFFFF" font-family="sans-serif"> Rea</text></g><g class="node" aria-label="graph-node117" transform="translate(76.09778780127034,-140.99578967389564)"><circle class="outline" cx="0" cy="0" r="25" fill="#C990C0" stroke="#b261a5" stroke-width="2px"/><text class="caption" text-anchor="middle" pointer-events="none" x="0" y="0" font-size="10px" fill="#FFFFFF" font-family="sans-serif"> Natalie</text><text class="caption" text-anchor="middle" pointer-events="none" x="0" y="10" font-size="10px" fill="#FFFFFF" font-family="sans-serif"> Portm…</text></g><g class="node" aria-label="graph-node120" transform="translate(160.45005707503333,-236.07214792245105)"><circle class="outline" cx="0" cy="0" r="25" fill="#C990C0" stroke="#b261a5" stroke-width="2px"/><text class="caption" text-anchor="middle" pointer-events="none" x="0" y="5" font-size="10px" fill="#FFFFFF" font-family="sans-serif"> Ben Miles</text></g><g class="node" aria-label="graph-node10" transform="translate(-207.06905967957914,-212.6570519709583)"><circle class="outline" cx="0" cy="0" r="25" fill="#F79767" stroke="#f36924" stroke-width="2px"/><text class="caption" text-anchor="middle" pointer-events="none" x="0" y="-5" font-size="10px" fill="#FFFFFF" font-family="sans-serif"> The</text><text class="caption" text-anchor="middle" pointer-events="none" x="0" y="5" font-size="10px" fill="#FFFFFF" font-family="sans-serif"> Matrix</text><text class="caption" text-anchor="middle" pointer-events="none" x="0" y="15" font-size="10px" fill="#FFFFFF" font-family="sans-serif"> Rev…</text></g><g class="node" aria-label="graph-node3" transform="translate(-228.8700418256859,-85.2508765467243)"><circle class="outline" cx="0" cy="0" r="25" fill="#C990C0" stroke="#b261a5" stroke-width="2px"/><text class="caption" text-anchor="middle" pointer-events="none" x="0" y="0" font-size="10px" fill="#FFFFFF" font-family="sans-serif"> Laurence</text><text class="caption" text-anchor="middle" pointer-events="none" x="0" y="10" font-size="10px" fill="#FFFFFF" font-family="sans-serif"> Fishb…</text></g><g class="node" aria-label="graph-node2" transform="translate(-328.10125887877035,-87.85267273569893)"><circle class="outline" cx="0" cy="0" r="25" fill="#C990C0" stroke="#b261a5" stroke-width="2px"/><text class="caption" text-anchor="middle" pointer-events="none" x="0" y="5" font-size="10px" fill="#FFFFFF" font-family="sans-serif"> Carrie-A…</text></g><g class="node" aria-label="graph-node1" transform="translate(-132.5057759794126,-61.25829446853807)"><circle class="outline" cx="0" cy="0" r="25" fill="#C990C0" stroke="#b261a5" stroke-width="2px"/><text class="caption" text-anchor="middle" pointer-events="none" x="0" y="0" font-size="10px" fill="#FFFFFF" font-family="sans-serif"> Keanu</text><text class="caption" text-anchor="middle" pointer-events="none" x="0" y="10" font-size="10px" fill="#FFFFFF" font-family="sans-serif"> Reeves</text></g><g class="node" aria-label="graph-node9" transform="translate(-297.5328668684308,40.04979166216123)"><circle class="outline" cx="0" cy="0" r="25" fill="#F79767" stroke="#f36924" stroke-width="2px"/><text class="caption" text-anchor="middle" pointer-events="none" x="0" y="-5" font-size="10px" fill="#FFFFFF" font-family="sans-serif"> The</text><text class="caption" text-anchor="middle" pointer-events="none" x="0" y="5" font-size="10px" fill="#FFFFFF" font-family="sans-serif"> Matrix</text><text class="caption" text-anchor="middle" pointer-events="none" x="0" y="15" font-size="10px" fill="#FFFFFF" font-family="sans-serif"> Rel…</text></g><g class="node" aria-label="graph-node0" transform="translate(-199.9969998581282,58.83240062769937)"><circle class="outline" cx="0" cy="0" r="25" fill="#F79767" stroke="#f36924" stroke-width="2px"/><text class="caption" text-anchor="middle" pointer-events="none" x="0" y="0" font-size="10px" fill="#FFFFFF" font-family="sans-serif"> The</text><text class="caption" text-anchor="middle" pointer-events="none" x="0" y="10" font-size="10px" fill="#FFFFFF" font-family="sans-serif"> Matrix</text></g><g class="node" aria-label="graph-node8" transform="translate(-185.47178782821695,204.19595921491452)"><circle class="outline" cx="0" cy="0" r="25" fill="#C990C0" stroke="#b261a5" stroke-width="2px"/><text class="caption" text-anchor="middle" pointer-events="none" x="0" y="0" font-size="10px" fill="#FFFFFF" font-family="sans-serif"> Emil</text><text class="caption" text-anchor="middle" pointer-events="none" x="0" y="10" font-size="10px" fill="#FFFFFF" font-family="sans-serif"> Eifrem</text></g></g></svg>