<svg xmlns="http://www.w3.org/2000/svg" width="323.3184509277344" height="293.90887451171875" viewBox="-175.2906494140625 -96.64754486083984 323.3184509277344 293.90887451171875"><title>Neo4j Graph Visualization</title><desc>Created using Neo4j (http://www.neo4j.com/)</desc><g class="layer relationships"><g class="relationship" transform="translate(-10.16351247854871 77.271299500706) rotate(399.3559359393305)"><path class="outline" fill="#A5ABB6" stroke="none" d="M 25 0.5 L 45.46205661177211 0.5 L 45.46205661177211 -0.5 L 25 -0.5 Z M 91.02455661177211 0.5 L 111.48661322354423 0.5 L 111.48661322354423 3.5 L 118.48661322354423 0 L 111.48661322354423 -3.5 L 111.48661322354423 -0.5 L 91.02455661177211 -0.5 Z"/><text text-anchor="middle" pointer-events="none" font-size="8px" fill="#000000" x="68.24330661177211" y="3" font-family="sans-serif">ACTED_IN</text></g><g class="relationship" transform="translate(-10.16351247854871 77.271299500706) rotate(332.6475975170374)"><path class="outline" fill="#A5ABB6" stroke="none" d="M 25 0.5 L 46.44543583455355 0.5 L 46.44543583455355 -0.5 L 25 -0.5 Z M 92.00793583455355 0.5 L 113.4533716691071 0.5 L 113.4533716691071 3.5 L 120.4533716691071 0 L 113.4533716691071 -3.5 L 113.4533716691071 -0.5 L 92.00793583455355 -0.5 Z"/><text text-anchor="middle" pointer-events="none" font-size="8px" fill="#000000" x="69.22668583455355" y="3" font-family="sans-serif">ACTED_IN</text></g><g class="relationship" transform="translate(-10.16351247854871 77.271299500706) rotate(277.25648579340213)"><path class="outline" fill="#A5ABB6" stroke="none" d="M 25 0.5 L 46.76320945869625 0.5 L 46.76320945869625 -0.5 L 25 -0.5 Z M 92.32570945869625 0.5 L 114.0889189173925 0.5 L 114.0889189173925 3.5 L 121.0889189173925 0 L 114.0889189173925 -3.5 L 114.0889189173925 -0.5 L 92.32570945869625 -0.5 Z"/><text text-anchor="middle" pointer-events="none" font-size="8px" fill="#000000" x="69.54445945869625" y="3" font-family="sans-serif">ACTED_IN</text></g><g class="relationship" transform="translate(-10.16351247854871 77.271299500706) rotate(225.26197621252874)"><path class="outline" fill="#A5ABB6" stroke="none" d="M 25 0.5 L 46.299196451018915 0.5 L 46.299196451018915 -0.5 L 25 -0.5 Z M 91.86169645101891 0.5 L 113.16089290203783 0.5 L 113.16089290203783 3.5 L 120.16089290203783 0 L 113.16089290203783 -3.5 L 113.16089290203783 -0.5 L 91.86169645101891 -0.5 Z"/><text text-anchor="middle" pointer-events="none" font-size="8px" fill="#000000" x="69.08044645101891" y="3" transform="rotate(180 69.08044645101891 0)" font-family="sans-serif">ACTED_IN</text></g><g class="relationship" transform="translate(-10.16351247854871 77.271299500706) rotate(521.5789244642051)"><path class="outline" fill="#A5ABB6" stroke="none" d="M 25 0.5 L 45.45826164581551 0.5 L 45.45826164581551 -0.5 L 25 -0.5 Z M 91.02076164581551 0.5 L 111.47902329163102 0.5 L 111.47902329163102 3.5 L 118.47902329163102 0 L 111.47902329163102 -3.5 L 111.47902329163102 -0.5 L 91.02076164581551 -0.5 Z"/><text text-anchor="middle" pointer-events="none" font-size="8px" fill="#000000" x="68.23951164581551" y="3" transform="rotate(180 68.23951164581551 0)" font-family="sans-serif">ACTED_IN</text></g></g><g class="layer nodes"><g class="node" aria-label="graph-node4" transform="translate(-10.16351247854871,77.271299500706)"><circle class="outline" cx="0" cy="0" r="25" fill="#C990C0" stroke="#b261a5" stroke-width="2px"/><text class="caption" text-anchor="middle" pointer-events="none" x="0" y="0" font-size="10px" fill="#FFFFFF" font-family="sans-serif"> Hugo</text><text class="caption" text-anchor="middle" pointer-events="none" x="0" y="10" font-size="10px" fill="#FFFFFF" font-family="sans-serif"> Weavi…</text></g><g class="node" aria-label="graph-node105" transform="translate(100.7834207726624,168.26133289181035)"><circle class="outline" cx="0" cy="0" r="25" fill="#F79767" stroke="#f36924" stroke-width="2px"/><text class="caption" text-anchor="middle" pointer-events="none" x="0" y="0" font-size="10px" fill="#FFFFFF" font-family="sans-serif"> Cloud</text><text class="caption" text-anchor="middle" pointer-events="none" x="0" y="10" font-size="10px" fill="#FFFFFF" font-family="sans-serif"> Atlas</text></g><g class="node" aria-label="graph-node116" transform="translate(119.02779145123317,10.440989619379444)"><circle class="outline" cx="0" cy="0" r="25" fill="#F79767" stroke="#f36924" stroke-width="2px"/><text class="caption" text-anchor="middle" pointer-events="none" x="0" y="0" font-size="10px" fill="#FFFFFF" font-family="sans-serif"> V for</text><text class="caption" text-anchor="middle" pointer-events="none" x="0" y="10" font-size="10px" fill="#FFFFFF" font-family="sans-serif"> Vende…</text></g><g class="node" aria-label="graph-node10" transform="translate(8.289163197485395,-67.64754327292223)"><circle class="outline" cx="0" cy="0" r="25" fill="#F79767" stroke="#f36924" stroke-width="2px"/><text class="caption" text-anchor="middle" pointer-events="none" x="0" y="-5" font-size="10px" fill="#FFFFFF" font-family="sans-serif"> The</text><text class="caption" text-anchor="middle" pointer-events="none" x="0" y="5" font-size="10px" fill="#FFFFFF" font-family="sans-serif"> Matrix</text><text class="caption" text-anchor="middle" pointer-events="none" x="0" y="15" font-size="10px" fill="#FFFFFF" font-family="sans-serif"> Rev…</text></g><g class="node" aria-label="graph-node9" transform="translate(-112.33736770616326,-25.841202825846842)"><circle class="outline" cx="0" cy="0" r="25" fill="#F79767" stroke="#f36924" stroke-width="2px"/><text class="caption" text-anchor="middle" pointer-events="none" x="0" y="-5" font-size="10px" fill="#FFFFFF" font-family="sans-serif"> The</text><text class="caption" text-anchor="middle" pointer-events="none" x="0" y="5" font-size="10px" fill="#FFFFFF" font-family="sans-serif"> Matrix</text><text class="caption" text-anchor="middle" pointer-events="none" x="0" y="15" font-size="10px" fill="#FFFFFF" font-family="sans-serif"> Rel…</text></g><g class="node" aria-label="graph-node0" transform="translate(-146.29064764625474,122.6103907548708)"><circle class="outline" cx="0" cy="0" r="25" fill="#F79767" stroke="#f36924" stroke-width="2px"/><text class="caption" text-anchor="middle" pointer-events="none" x="0" y="0" font-size="10px" fill="#FFFFFF" font-family="sans-serif"> The</text><text class="caption" text-anchor="middle" pointer-events="none" x="0" y="10" font-size="10px" fill="#FFFFFF" font-family="sans-serif"> Matrix</text></g></g></svg>