<svg xmlns="http://www.w3.org/2000/svg" width="432.0946044921875" height="390.965087890625" viewBox="-397.50006103515625 -192.7039337158203 432.0946044921875 390.965087890625"><title>Neo4j Graph Visualization</title><desc>Created using Neo4j (http://www.neo4j.com/)</desc><g class="layer relationships"><g class="relationship" transform="translate(5.594566733574196 169.26113900467078) rotate(193.81203551490796)"><path class="outline" fill="#A5ABB6" stroke="none" d="M 25 0.5 L 49.25250778756623 0.5 L 49.25250778756623 -0.5 L 25 -0.5 Z M 96.14313278756623 0.5 L 120.39564057513246 0.5 L 120.39564057513246 3.5 L 127.39564057513246 0 L 120.39564057513246 -3.5 L 120.39564057513246 -0.5 L 96.14313278756623 -0.5 Z"/><text text-anchor="middle" pointer-events="none" font-size="8px" fill="#000000" x="72.69782028756623" y="3" transform="rotate(180 72.69782028756623 0)" font-family="sans-serif">DIRECTED</text></g><g class="relationship" transform="translate(-368.50004961014963 32.628800387716375) rotate(326.6177006689743)"><path class="outline" fill="#A5ABB6" stroke="none" d="M 24.018736134675446,6.953439040707552 L 24.277555179777966,5.987513214418485 A 380.9939843411906 380.9939843411906 0 0 0 94.3401933538555,17.898668296195524 L 94.26526865106189,18.89585749033637 A 381.9939843411906 381.9939843411906 0 0 1 24.018736134675446,6.953439040707552 Z M 146.07327630673998,19.265181121151613 L 146.0125758170452,18.267025095997838 A 380.9939843411906 380.9939843411906 0 0 0 216.23790684079705,7.355940553281008 L 215.5028412784986,4.4473878858667035 L 223.14704065848017,6.12554635248702 L 217.217994257195,11.234010776500082 L 216.48292869489654,8.325458109085776 A 381.9939843411906 381.9939843411906 0 0 1 146.07327630673998,19.265181121151613"/><text text-anchor="middle" pointer-events="none" font-size="8px" fill="#000000" x="120.16656816433361" y="22.459875345047806" font-family="sans-serif">PRODUCED</text></g><g class="relationship" transform="translate(-368.50004961014963 32.628800387716375) rotate(326.6177006689743)"><path class="outline" fill="#A5ABB6" stroke="none" d="M 24.018736134675446,-6.953439040707552 L 24.277555179777966,-5.987513214418485 A 380.9939843411906 380.9939843411906 0 0 1 102.31683909354162,-18.413914805014656 L 102.26285079937263,-19.412456373549844 A 381.9939843411906 381.9939843411906 0 0 0 24.018736134675446,-6.953439040707552 Z M 138.06914198432045,-19.667708603173196 L 138.02939505580864,-18.66849882456114 A 380.9939843411906 380.9939843411906 0 0 1 216.23790684079705,-7.355940553281008 L 215.5028412784986,-4.4473878858667035 L 223.14704065848017,-6.12554635248702 L 217.217994257195,-11.234010776500082 L 216.48292869489654,-8.325458109085776 A 381.9939843411906 381.9939843411906 0 0 0 138.06914198432045,-19.667708603173196"/><text text-anchor="middle" pointer-events="none" font-size="8px" fill="#000000" x="120.16656816433358" y="-16.459875345047806" font-family="sans-serif">WROTE</text></g><g class="relationship" transform="translate(-368.50004961014963 32.628800387716375) rotate(383.9113458263768)"><path class="outline" fill="#A5ABB6" stroke="none" d="M 25 0.5 L 96.72135081659829 0.5 L 96.72135081659829 -0.5 L 25 -0.5 Z M 143.6119758165983 0.5 L 215.33332663319658 0.5 L 215.33332663319658 3.5 L 222.33332663319658 0 L 215.33332663319658 -3.5 L 215.33332663319658 -0.5 L 143.6119758165983 -0.5 Z"/><text text-anchor="middle" pointer-events="none" font-size="8px" fill="#000000" x="120.16666331659829" y="3" font-family="sans-serif">DIRECTED</text></g><g class="relationship" transform="translate(-368.50004961014963 32.628800387716375) rotate(318.51732185179037)"><path class="outline" fill="#A5ABB6" stroke="none" d="M 25 0.5 L 49.28402523272477 0.5 L 49.28402523272477 -0.5 L 25 -0.5 Z M 96.17465023272477 0.5 L 120.45867546544955 0.5 L 120.45867546544955 3.5 L 127.45867546544955 0 L 120.45867546544955 -3.5 L 120.45867546544955 -0.5 L 96.17465023272477 -0.5 Z"/><text text-anchor="middle" pointer-events="none" font-size="8px" fill="#000000" x="72.72933773272477" y="3" font-family="sans-serif">DIRECTED</text></g><g class="relationship" transform="translate(-368.50004961014963 32.628800387716375) rotate(355.11588404348527)"><path class="outline" fill="#A5ABB6" stroke="none" d="M 25 0.5 L 53.710090441518275 0.5 L 53.710090441518275 -0.5 L 25 -0.5 Z M 100.60071544151828 0.5 L 129.31080588303655 0.5 L 129.31080588303655 3.5 L 136.31080588303655 0 L 129.31080588303655 -3.5 L 129.31080588303655 -0.5 L 100.60071544151828 -0.5 Z"/><text text-anchor="middle" pointer-events="none" font-size="8px" fill="#000000" x="77.15540294151828" y="3" font-family="sans-serif">DIRECTED</text></g><g class="relationship" transform="translate(-368.50004961014963 32.628800387716375) rotate(391.83771578622407)"><path class="outline" fill="#A5ABB6" stroke="none" d="M 25 0.5 L 49.169112564950666 0.5 L 49.169112564950666 -0.5 L 25 -0.5 Z M 96.05973756495067 0.5 L 120.22885012990133 0.5 L 120.22885012990133 3.5 L 127.22885012990133 0 L 120.22885012990133 -3.5 L 120.22885012990133 -0.5 L 96.05973756495067 -0.5 Z"/><text text-anchor="middle" pointer-events="none" font-size="8px" fill="#000000" x="72.61442506495067" y="3" font-family="sans-serif">DIRECTED</text></g><g class="relationship" transform="translate(-77.77680744643023 8.960336437300397) rotate(233.19013036615138)"><path class="outline" fill="#A5ABB6" stroke="none" d="M 24.018736134675446,6.953439040707552 L 24.277555179777966,5.987513214418485 A 172.03956470450143 172.03956470450143 0 0 0 40.99445492485778,9.586977876784374 L 40.8328048058322,10.573826010500511 A 173.03956470450143 173.03956470450143 0 0 1 24.018736134675446,6.953439040707552 Z M 92.56552438413789,11.210500267018801 L 92.42820981455802,10.219972776748563 A 172.03956470450143 172.03956470450143 0 0 0 109.22863013432227,7.033005562935942 L 108.52372322815847,4.116996946068943 L 116.15013472470591,5.874224218031592 L 110.16850600920733,10.92101705209194 L 109.46359910304353,8.00500843522494 A 173.03956470450143 173.03956470450143 0 0 1 92.56552438413789,11.210500267018801"/><text text-anchor="middle" pointer-events="none" font-size="8px" fill="#000000" x="66.68138848433611" y="15.336554109462384" transform="rotate(180 66.68138848433611 12.336554109462384)" font-family="sans-serif">PRODUCED</text></g><g class="relationship" transform="translate(-77.77680744643023 8.960336437300397) rotate(233.19013036615138)"><path class="outline" fill="#A5ABB6" stroke="none" d="M 24.018736134675446,-6.953439040707552 L 24.277555179777966,-5.987513214418485 A 172.03956470450143 172.03956470450143 0 0 1 48.897298494976035,-10.693957633108056 L 48.78158457431094,-11.687240215540811 A 173.03956470450143 173.03956470450143 0 0 0 24.018736134675446,-6.953439040707552 Z M 84.59175071563777,-12.127955706426945 L 84.50051678479574,-11.132126218079094 A 172.03956470450143 172.03956470450143 0 0 1 109.22863013432227,-7.033005562935942 L 108.52372322815847,-4.116996946068943 L 116.15013472470591,-5.874224218031592 L 110.16850600920733,-10.92101705209194 L 109.46359910304353,-8.00500843522494 A 173.03956470450143 173.03956470450143 0 0 0 84.59175071563777,-12.127955706426945"/><text text-anchor="middle" pointer-events="none" font-size="8px" fill="#000000" x="66.68138848433603" y="-9.336554109462384" transform="rotate(180 66.68138848433603 -12.336554109462384)" font-family="sans-serif">WROTE</text></g><g class="relationship" transform="translate(-77.77680744643023 8.960336437300397) rotate(477.53994952931146)"><path class="outline" fill="#A5ABB6" stroke="none" d="M 25 0.5 L 42.93166991652508 0.5 L 42.93166991652508 -0.5 L 25 -0.5 Z M 89.82229491652508 0.5 L 107.75396483305016 0.5 L 107.75396483305016 3.5 L 114.75396483305016 0 L 107.75396483305016 -3.5 L 107.75396483305016 -0.5 L 89.82229491652508 -0.5 Z"/><text text-anchor="middle" pointer-events="none" font-size="8px" fill="#000000" x="66.37698241652508" y="3" transform="rotate(180 66.37698241652508 0)" font-family="sans-serif">DIRECTED</text></g><g class="relationship" transform="translate(-77.77680744643023 8.960336437300397) rotate(203.65579408273595)"><path class="outline" fill="#A5ABB6" stroke="none" d="M 25 0.5 L 69.40469832761109 0.5 L 69.40469832761109 -0.5 L 25 -0.5 Z M 116.29532332761109 0.5 L 160.70002165522217 0.5 L 160.70002165522217 3.5 L 167.70002165522217 0 L 160.70002165522217 -3.5 L 160.70002165522217 -0.5 L 116.29532332761109 -0.5 Z"/><text text-anchor="middle" pointer-events="none" font-size="8px" fill="#000000" x="92.85001082761109" y="3" transform="rotate(180 92.85001082761109 0)" font-family="sans-serif">DIRECTED</text></g><g class="relationship" transform="translate(-77.77680744643023 8.960336437300397) rotate(535.6299992279666)"><path class="outline" fill="#A5ABB6" stroke="none" d="M 25 0.5 L 38.24328772206103 0.5 L 38.24328772206103 -0.5 L 25 -0.5 Z M 85.13391272206103 0.5 L 98.37720044412205 0.5 L 98.37720044412205 3.5 L 105.37720044412205 0 L 98.37720044412205 -3.5 L 98.37720044412205 -0.5 L 85.13391272206103 -0.5 Z"/><text text-anchor="middle" pointer-events="none" font-size="8px" fill="#000000" x="61.68860022206103" y="3" transform="rotate(180 61.68860022206103 0)" font-family="sans-serif">DIRECTED</text></g><g class="relationship" transform="translate(-77.77680744643023 8.960336437300397) rotate(507.2106247051181)"><path class="outline" fill="#A5ABB6" stroke="none" d="M 25 0.5 L 69.04863008767222 0.5 L 69.04863008767222 -0.5 L 25 -0.5 Z M 115.93925508767222 0.5 L 159.98788517534445 0.5 L 159.98788517534445 3.5 L 166.98788517534445 0 L 159.98788517534445 -3.5 L 159.98788517534445 -0.5 L 115.93925508767222 -0.5 Z"/><text text-anchor="middle" pointer-events="none" font-size="8px" fill="#000000" x="92.49394258767222" y="3" transform="rotate(180 92.49394258767222 0)" font-family="sans-serif">DIRECTED</text></g><g class="relationship" transform="translate(-23.070496650307255 -163.70393535262775) rotate(516.5560971359944)"><path class="outline" fill="#A5ABB6" stroke="none" d="M 25 0.5 L 48.73110797083581 0.5 L 48.73110797083581 -0.5 L 25 -0.5 Z M 95.62173297083581 0.5 L 119.35284094167162 0.5 L 119.35284094167162 3.5 L 126.35284094167162 0 L 119.35284094167162 -3.5 L 119.35284094167162 -0.5 L 95.62173297083581 -0.5 Z"/><text text-anchor="middle" pointer-events="none" font-size="8px" fill="#000000" x="72.17642047083581" y="3" transform="rotate(180 72.17642047083581 0)" font-family="sans-serif">DIRECTED</text></g></g><g class="layer nodes"><g class="node" aria-label="graph-node105" transform="translate(-142.39442470829928,132.87859266274938)"><circle class="outline" cx="0" cy="0" r="25" fill="#F79767" stroke="#f36924" stroke-width="2px"/><text class="caption" text-anchor="middle" pointer-events="none" x="0" y="0" font-size="10px" fill="#FFFFFF" font-family="sans-serif"> Cloud</text><text class="caption" text-anchor="middle" pointer-events="none" x="0" y="10" font-size="10px" fill="#FFFFFF" font-family="sans-serif"> Atlas</text></g><g class="node" aria-label="graph-node108" transform="translate(5.594566733574196,169.26113900467078)"><circle class="outline" cx="0" cy="0" r="25" fill="#C990C0" stroke="#b261a5" stroke-width="2px"/><text class="caption" text-anchor="middle" pointer-events="none" x="0" y="0" font-size="10px" fill="#FFFFFF" font-family="sans-serif"> Tom</text><text class="caption" text-anchor="middle" pointer-events="none" x="0" y="10" font-size="10px" fill="#FFFFFF" font-family="sans-serif"> Tykwer</text></g><g class="node" aria-label="graph-node6" transform="translate(-368.50004961014963,32.628800387716375)"><circle class="outline" cx="0" cy="0" r="25" fill="#C990C0" stroke="#b261a5" stroke-width="2px"/><text class="caption" text-anchor="middle" pointer-events="none" x="0" y="0" font-size="10px" fill="#FFFFFF" font-family="sans-serif"> Lana</text><text class="caption" text-anchor="middle" pointer-events="none" x="0" y="10" font-size="10px" fill="#FFFFFF" font-family="sans-serif"> Wach…</text></g><g class="node" aria-label="graph-node5" transform="translate(-77.77680744643023,8.960336437300397)"><circle class="outline" cx="0" cy="0" r="25" fill="#C990C0" stroke="#b261a5" stroke-width="2px"/><text class="caption" text-anchor="middle" pointer-events="none" x="0" y="0" font-size="10px" fill="#FFFFFF" font-family="sans-serif"> Lilly</text><text class="caption" text-anchor="middle" pointer-events="none" x="0" y="10" font-size="10px" fill="#FFFFFF" font-family="sans-serif"> Wach…</text></g><g class="node" aria-label="graph-node116" transform="translate(-161.92916691477296,-103.488055773406)"><circle class="outline" cx="0" cy="0" r="25" fill="#F79767" stroke="#f36924" stroke-width="2px"/><text class="caption" text-anchor="middle" pointer-events="none" x="0" y="0" font-size="10px" fill="#FFFFFF" font-family="sans-serif"> V for</text><text class="caption" text-anchor="middle" pointer-events="none" x="0" y="10" font-size="10px" fill="#FFFFFF" font-family="sans-serif"> Vende…</text></g><g class="node" aria-label="graph-node25" transform="translate(-23.070496650307255,-163.70393535262775)"><circle class="outline" cx="0" cy="0" r="25" fill="#C990C0" stroke="#b261a5" stroke-width="2px"/><text class="caption" text-anchor="middle" pointer-events="none" x="0" y="0" font-size="10px" fill="#FFFFFF" font-family="sans-serif"> James</text><text class="caption" text-anchor="middle" pointer-events="none" x="0" y="10" font-size="10px" fill="#FFFFFF" font-family="sans-serif"> Marsh…</text></g><g class="node" aria-label="graph-node10" transform="translate(-254.28471629310275,-68.35884915397338)"><circle class="outline" cx="0" cy="0" r="25" fill="#F79767" stroke="#f36924" stroke-width="2px"/><text class="caption" text-anchor="middle" pointer-events="none" x="0" y="-5" font-size="10px" fill="#FFFFFF" font-family="sans-serif"> The</text><text class="caption" text-anchor="middle" pointer-events="none" x="0" y="5" font-size="10px" fill="#FFFFFF" font-family="sans-serif"> Matrix</text><text class="caption" text-anchor="middle" pointer-events="none" x="0" y="15" font-size="10px" fill="#FFFFFF" font-family="sans-serif"> Rev…</text></g><g class="node" aria-label="graph-node9" transform="translate(-207.77497327436402,18.894684781293694)"><circle class="outline" cx="0" cy="0" r="25" fill="#F79767" stroke="#f36924" stroke-width="2px"/><text class="caption" text-anchor="middle" pointer-events="none" x="0" y="-5" font-size="10px" fill="#FFFFFF" font-family="sans-serif"> The</text><text class="caption" text-anchor="middle" pointer-events="none" x="0" y="5" font-size="10px" fill="#FFFFFF" font-family="sans-serif"> Matrix</text><text class="caption" text-anchor="middle" pointer-events="none" x="0" y="15" font-size="10px" fill="#FFFFFF" font-family="sans-serif"> Rel…</text></g><g class="node" aria-label="graph-node0" transform="translate(-239.17469484098038,112.93182290680011)"><circle class="outline" cx="0" cy="0" r="25" fill="#F79767" stroke="#f36924" stroke-width="2px"/><text class="caption" text-anchor="middle" pointer-events="none" x="0" y="0" font-size="10px" fill="#FFFFFF" font-family="sans-serif"> The</text><text class="caption" text-anchor="middle" pointer-events="none" x="0" y="10" font-size="10px" fill="#FFFFFF" font-family="sans-serif"> Matrix</text></g></g></svg>