<svg xmlns="http://www.w3.org/2000/svg" width="510.71380615234375" height="92.0899658203125" viewBox="-374.8741760253906 -59.627132415771484 510.71380615234375 92.0899658203125"><title>Neo4j Graph Visualization</title><desc>Created using Neo4j (http://www.neo4j.com/)</desc><g class="layer relationships"><g class="relationship" transform="translate(106.83962367899734 -1.1106900710251413) rotate(181.02472251491224)"><path class="outline" fill="#A5ABB6" stroke="none" d="M 21.40063509461097,12.933012701892217 L 21.90063509461097,12.06698729810778 A 99.47865939850037 99.47865939850037 0 0 0 59.75967236647827,24.682647699032856 L 59.640246828385806,25.6754908592809 A 100.47865939850037 100.47865939850037 0 0 1 21.40063509461097,12.933012701892217 Z M 79.03747661605861,26.121918058900974 L 78.96385389988703,25.124631893518384 A 99.47865939850037 99.47865939850037 0 0 0 117.3631966523278,14.264057936094122 L 115.98431100585046,11.599724178109065 L 123.80978969537249,11.490713720644509 L 119.20171084763092,17.816502946740865 L 117.82282520115358,15.152169188755806 A 100.47865939850037 100.47865939850037 0 0 1 79.03747661605861,26.121918058900974"/><text text-anchor="middle" pointer-events="none" font-size="8px" fill="#000000" x="69.33956534307444" y="28.86813218355347" transform="rotate(180 69.33956534307444 25.86813218355347)" font-family="sans-serif">trek</text></g><g class="relationship" transform="translate(-39.149595769183485 -3.721953830267441) rotate(186.67611017663887)"><path class="outline" fill="#A5ABB6" stroke="none" d="M 25 0.5 L 65.4013008306474 0.5 L 65.4013008306474 -0.5 L 25 -0.5 Z M 84.7372383306474 0.5 L 125.1385391612948 0.5 L 125.1385391612948 3.5 L 132.1385391612948 0 L 125.1385391612948 -3.5 L 125.1385391612948 -0.5 L 84.7372383306474 -0.5 Z"/><text text-anchor="middle" pointer-events="none" font-size="8px" fill="#000000" x="75.0692695806474" y="3" transform="rotate(180 75.0692695806474 0)" font-family="sans-serif">trek</text></g><g class="relationship" transform="translate(-195.22261146050744 -21.990349018721545) rotate(183.28114792931012)"><path class="outline" fill="#A5ABB6" stroke="none" d="M 25 0.5 L 62.28150383446811 0.5 L 62.28150383446811 -0.5 L 25 -0.5 Z M 81.61744133446811 0.5 L 118.89894516893622 0.5 L 118.89894516893622 3.5 L 125.89894516893622 0 L 118.89894516893622 -3.5 L 118.89894516893622 -0.5 L 81.61744133446811 -0.5 Z"/><text text-anchor="middle" pointer-events="none" font-size="8px" fill="#000000" x="71.94947258446811" y="3" transform="rotate(180 71.94947258446811 0)" font-family="sans-serif">trek</text></g><g class="relationship" transform="translate(106.83962367899734 -1.1106900710251413) rotate(181.02472251491224)"><path class="outline" fill="#A5ABB6" stroke="none" d="M 25 0.5 L 58.50042613095734 0.5 L 58.50042613095734 -0.5 L 25 -0.5 Z M 80.51214488095734 0.5 L 114.01257101191467 0.5 L 114.01257101191467 3.5 L 121.01257101191467 0 L 114.01257101191467 -3.5 L 114.01257101191467 -0.5 L 80.51214488095734 -0.5 Z"/><text text-anchor="middle" pointer-events="none" font-size="8px" fill="#000000" x="69.50628550595734" y="3" transform="rotate(180 69.50628550595734 0)" font-family="sans-serif">road</text></g><g class="relationship" transform="translate(106.83962367899734 -1.1106900710251413) rotate(181.02472251491224)"><path class="outline" fill="#A5ABB6" stroke="none" d="M 21.40063509461097,-12.933012701892217 L 21.90063509461097,-12.06698729810778 A 99.47865939850037 99.47865939850037 0 0 1 39.241913855461476,-19.97108437106597 L 38.91623545233165,-20.91656497781304 A 100.47865939850037 100.47865939850037 0 0 0 21.40063509461097,-12.933012701892217 Z M 99.95848237472111,-22.321452152444436 L 99.67664623408803,-21.361989599848954 A 99.47865939850037 99.47865939850037 0 0 1 117.3631966523278,-14.264057936094122 L 115.98431100585046,-11.599724178109065 L 123.80978969537249,-11.490713720644509 L 119.20171084763092,-17.816502946740865 L 117.82282520115358,-15.152169188755806 A 100.47865939850037 100.47865939850037 0 0 0 99.95848237472111,-22.321452152444436"/><text text-anchor="middle" pointer-events="none" font-size="8px" fill="#000000" x="69.33956534307445" y="-22.86813218355347" transform="rotate(180 69.33956534307445 -25.86813218355347)" font-family="sans-serif">PublicTransport</text></g></g><g class="layer nodes"><g class="node" aria-label="graph-node1" transform="translate(106.83962367899734,-1.1106900710251413)"><circle class="outline" cx="0" cy="0" r="25" fill="#57C7E3" stroke="#23b3d7" stroke-width="2px"/><text class="caption" text-anchor="middle" pointer-events="none" x="0" y="5" font-size="10px" fill="#2A2C34" font-family="sans-serif"> Darjeeling</text></g><g class="node" aria-label="graph-node3" transform="translate(-345.87418842701675,-30.627131440523307)"><circle class="outline" cx="0" cy="0" r="25" fill="#D9C8AE" stroke="#c0a378" stroke-width="2px"/><text class="caption" text-anchor="middle" pointer-events="none" x="0" y="5" font-size="10px" fill="#2A2C34" font-family="sans-serif"> Sandakp…</text></g><g class="node" aria-label="graph-node0" transform="translate(-39.149595769183485,-3.721953830267441)"><circle class="outline" cx="0" cy="0" r="25" fill="#57C7E3" stroke="#23b3d7" stroke-width="2px"/><text class="caption" text-anchor="middle" pointer-events="none" x="0" y="5" font-size="10px" fill="#2A2C34" font-family="sans-serif"> Rimbik</text></g><g class="node" aria-label="graph-node2" transform="translate(-195.22261146050744,-21.990349018721545)"><circle class="outline" cx="0" cy="0" r="25" fill="#F16667" stroke="#eb2728" stroke-width="2px"/><text class="caption" text-anchor="middle" pointer-events="none" x="0" y="5" font-size="10px" fill="#FFFFFF" font-family="sans-serif"> BhikeBh…</text></g></g></svg>