<svg xmlns="http://www.w3.org/2000/svg" width="386.8202209472656" height="390.346923828125" viewBox="-193.54867553710938 -211.05984497070312 386.8202209472656 390.346923828125"><title>Neo4j Graph Visualization</title><desc>Created using Neo4j (http://www.neo4j.com/)</desc><g class="layer relationships"><g class="relationship" transform="translate(101.35467853955119 150.2870828039152) rotate(295.94273596395266)"><path class="outline" fill="#A5ABB6" stroke="none" d="M 21.40063509461097,12.933012701892217 L 21.90063509461097,12.06698729810778 A 97.24338014372802 97.24338014372802 0 0 0 57.34305016732911,24.19790530939119 L 57.207521404551976,25.188678721660665 A 98.24338014372802 98.24338014372802 0 0 1 21.40063509461097,12.933012701892217 Z M 79.27910113026547,25.704090629338154 L 79.1899676339324,24.708070940862356 A 97.24338014372802 97.24338014372802 0 0 0 115.15999932430647,14.244764667183846 L 113.78290792460844,11.579503089612572 L 121.60845823858911,11.47576166415031 L 116.99612119057052,17.79844677061221 L 115.61902979087249,15.133185193040935 A 98.24338014372802 98.24338014372802 0 0 1 79.27910113026547,25.704090629338154"/><text text-anchor="middle" pointer-events="none" font-size="8px" fill="#000000" x="68.2404598688082" y="28.568490646672757" font-family="sans-serif">road</text></g><g class="relationship" transform="translate(164.27154246945975 20.96050099078006) rotate(226.06387388812288)"><path class="outline" fill="#A5ABB6" stroke="none" d="M 24.018736134675446,-6.953439040707552 L 24.277555179777966,-5.987513214418485 A 183.13111274668984 183.13111274668984 0 0 1 46.416348773912674,-10.477218234794265 L 46.27842012947493,-11.467660403244082 A 184.13111274668984 184.13111274668984 0 0 0 24.018736134675446,-6.953439040707552 Z M 92.74232189532813,-12.018420882991421 L 92.62790914524135,-11.024987582453548 A 183.13111274668984 183.13111274668984 0 0 1 114.86690496028785,-7.061315281161325 L 114.15935402473613,-4.145947092818748 L 121.78735588901249,-5.896257796264395 L 115.81030620769016,-10.948472865618093 L 115.10275527213844,-8.033104677275517 A 184.13111274668984 184.13111274668984 0 0 0 92.74232189532813,-12.018420882991421"/><text text-anchor="middle" pointer-events="none" font-size="8px" fill="#000000" x="69.49885396503755" y="-9.714655305082033" transform="rotate(180 69.49885396503755 -12.714655305082033)" font-family="sans-serif">twowheeler</text></g><g class="relationship" transform="translate(62.911605526464065 -84.23522341394717) rotate(223.01096469466773)"><path class="outline" fill="#A5ABB6" stroke="none" d="M 24.018736134675446,-6.953439040707552 L 24.277555179777966,-5.987513214418485 A 177.8683141122191 177.8683141122191 0 0 1 45.085530837128495,-10.250067787999484 L 44.94369707836665,-11.23995827935471 A 178.8683141122191 178.8683141122191 0 0 0 24.018736134675446,-6.953439040707552 Z M 91.4037736437202,-11.800477169433123 L 91.28586281442603,-10.807452982247753 A 177.8683141122191 177.8683141122191 0 0 1 112.190618482717,-7.0481428196374925 L 111.48429780442017,-4.13247632646474 L 119.11156041316956,-5.88600565247366 L 113.13237938711278,-10.935698143867828 L 112.42605870881594,-8.020031650695076 A 178.8683141122191 178.8683141122191 0 0 0 91.4037736437202,-11.800477169433123"/><text text-anchor="middle" pointer-events="none" font-size="8px" fill="#000000" x="68.16148948238002" y="-9.535249457279775" transform="rotate(180 68.16148948238002 -12.535249457279775)" font-family="sans-serif">twowheeler</text></g><g class="relationship" transform="translate(62.911605526464065 -84.23522341394717) rotate(524.461820309986)"><path class="outline" fill="#A5ABB6" stroke="none" d="M 24.018736134675446,-6.953439040707552 L 24.277555179777966,-5.987513214418485 A 192.90039020049448 192.90039020049448 0 0 1 48.89023114985814,-10.8923148167529 L 48.759004775483234,-11.883667245845828 A 193.90039020049448 193.90039020049448 0 0 0 24.018736134675446,-6.953439040707552 Z M 95.22895419642569,-12.41716182856672 L 95.1205216955766,-11.423058014692344 A 192.90039020049448 192.90039020049448 0 0 1 119.83931414938888,-7.084602437902648 L 119.12958830387997,-4.169762952747993 L 126.75889392233456,-5.91438204590762 L 120.7856152767341,-10.971055084775521 L 120.07588943122519,-8.056215599620867 A 193.90039020049448 193.90039020049448 0 0 0 95.22895419642569,-12.41716182856672"/><text text-anchor="middle" pointer-events="none" font-size="8px" fill="#000000" x="71.9836783768671" y="-10.047690786625168" transform="rotate(180 71.9836783768671 -13.047690786625168)" font-family="sans-serif">twowheeler</text></g><g class="relationship" transform="translate(-82.61709490282627 -43.77209069069207) rotate(485.0693185182869)"><path class="outline" fill="#A5ABB6" stroke="none" d="M 24.018736134675446,6.953439040707552 L 24.277555179777966,5.987513214418485 A 176.26963651103807 176.26963651103807 0 0 0 44.681550574105074,10.180532029851804 L 44.53848598222655,11.170245383581374 A 177.26963651103807 177.26963651103807 0 0 1 24.018736134675446,6.953439040707552 Z M 90.99731067258658,11.73379526571523 L 90.87829527375295,10.740902857223517 A 176.26963651103807 176.26963651103807 0 0 0 111.37799555203742,7.044049690163197 L 110.6720571580366,4.128290615089345 L 118.29908979287654,5.882819950006899 L 112.31924674403852,10.931728456928333 L 111.6133083500377,8.01596938185448 A 177.26963651103807 177.26963651103807 0 0 1 90.99731067258658,11.73379526571523"/><text text-anchor="middle" pointer-events="none" font-size="8px" fill="#000000" x="67.75541971617018" y="15.480751995419212" transform="rotate(180 67.75541971617018 12.480751995419212)" font-family="sans-serif">twowheeler</text></g><g class="relationship" transform="translate(164.27154246945975 20.96050099078006) rotate(226.06387388812288)"><path class="outline" fill="#A5ABB6" stroke="none" d="M 24.018736134675446,6.953439040707552 L 24.277555179777966,5.987513214418485 A 183.13111274668984 183.13111274668984 0 0 0 59.87127426360406,11.846729540919881 L 59.80681716252063,12.844650019775742 A 184.13111274668984 184.13111274668984 0 0 1 24.018736134675446,6.953439040707552 Z M 79.18508622059977,13.074350590702466 L 79.14430163401286,12.07518262809711 A 183.13111274668984 183.13111274668984 0 0 0 114.86690496028785,7.061315281161325 L 114.15935402473613,4.145947092818748 L 121.78735588901249,5.896257796264395 L 115.81030620769016,10.948472865618093 L 115.10275527213844,8.033104677275517 A 184.13111274668984 184.13111274668984 0 0 1 79.18508622059977,13.074350590702466"/><text text-anchor="middle" pointer-events="none" font-size="8px" fill="#000000" x="69.49885396503757" y="15.714655305082033" transform="rotate(180 69.49885396503757 12.714655305082033)" font-family="sans-serif">trek</text></g><g class="relationship" transform="translate(101.35467853955119 150.2870828039152) rotate(295.94273596395266)"><path class="outline" fill="#A5ABB6" stroke="none" d="M 25 0.5 L 58.74151694250821 0.5 L 58.74151694250821 -0.5 L 25 -0.5 Z M 78.07745444250821 0.5 L 111.81897138501643 0.5 L 111.81897138501643 3.5 L 118.81897138501643 0 L 111.81897138501643 -3.5 L 111.81897138501643 -0.5 L 78.07745444250821 -0.5 Z"/><text text-anchor="middle" pointer-events="none" font-size="8px" fill="#000000" x="68.40948569250821" y="3" font-family="sans-serif">trek</text></g><g class="relationship" transform="translate(101.35467853955119 150.2870828039152) rotate(295.94273596395266)"><path class="outline" fill="#A5ABB6" stroke="none" d="M 21.40063509461097,-12.933012701892217 L 21.90063509461097,-12.06698729810778 A 97.24338014372802 97.24338014372802 0 0 1 38.17306449997734,-19.55671316510812 L 37.840401642940854,-20.49975898772138 A 98.24338014372802 98.24338014372802 0 0 0 21.40063509461097,-12.933012701892217 Z M 98.84398072013994,-21.92430455528236 L 98.55570017123954,-20.966758564154162 A 97.24338014372802 97.24338014372802 0 0 1 115.15999932430647,-14.244764667183846 L 113.78290792460844,-11.579503089612572 L 121.60845823858911,-11.47576166415031 L 116.99612119057052,-17.79844677061221 L 115.61902979087249,-15.133185193040935 A 98.24338014372802 98.24338014372802 0 0 0 98.84398072013994,-21.92430455528236"/><text text-anchor="middle" pointer-events="none" font-size="8px" fill="#000000" x="68.24045986880819" y="-22.568490646672757" font-family="sans-serif">PublicTransport</text></g><g class="relationship" transform="translate(62.911605526464065 -84.23522341394717) rotate(223.01096469466773)"><path class="outline" fill="#A5ABB6" stroke="none" d="M 24.018736134675446,6.953439040707552 L 24.277555179777966,5.987513214418485 A 177.8683141122191 177.8683141122191 0 0 0 58.535226040457864,11.65784321001911 L 58.46900830847661,12.65564840742553 A 178.8683141122191 178.8683141122191 0 0 1 24.018736134675446,6.953439040707552 Z M 77.84824484050804,12.889449747296766 L 77.8061189755352,11.890337435541852 A 177.8683141122191 177.8683141122191 0 0 0 112.190618482717,7.0481428196374925 L 111.48429780442017,4.13247632646474 L 119.11156041316956,5.88600565247366 L 113.13237938711278,10.935698143867828 L 112.42605870881594,8.020031650695076 A 178.8683141122191 178.8683141122191 0 0 1 77.84824484050804,12.889449747296766"/><text text-anchor="middle" pointer-events="none" font-size="8px" fill="#000000" x="68.16148948238006" y="15.535249457279775" transform="rotate(180 68.16148948238006 12.535249457279775)" font-family="sans-serif">trek</text></g><g class="relationship" transform="translate(62.911605526464065 -84.23522341394717) rotate(524.461820309986)"><path class="outline" fill="#A5ABB6" stroke="none" d="M 24.018736134675446,6.953439040707552 L 24.277555179777966,5.987513214418485 A 192.90039020049448 192.90039020049448 0 0 0 62.353861291855985,12.196114565906043 L 62.29243068164726,13.194225922483753 A 193.90039020049448 193.90039020049448 0 0 1 24.018736134675446,6.953439040707552 Z M 81.66900766786068,13.416677183624131 L 81.63050770564416,12.417418582005268 A 192.90039020049448 192.90039020049448 0 0 0 119.83931414938888,7.084602437902648 L 119.12958830387997,4.169762952747993 L 126.75889392233456,5.91438204590762 L 120.7856152767341,10.971055084775521 L 120.07588943122519,8.056215599620867 A 193.90039020049448 193.90039020049448 0 0 1 81.66900766786068,13.416677183624131"/><text text-anchor="middle" pointer-events="none" font-size="8px" fill="#000000" x="71.98367837686719" y="16.047690786625168" transform="rotate(180 71.98367837686719 13.047690786625168)" font-family="sans-serif">trek</text></g><g class="relationship" transform="translate(-82.61709490282627 -43.77209069069207) rotate(485.0693185182869)"><path class="outline" fill="#A5ABB6" stroke="none" d="M 24.018736134675446,-6.953439040707552 L 24.277555179777966,-5.987513214418485 A 176.26963651103807 176.26963651103807 0 0 1 58.12957307046054,-11.600364365460251 L 58.062800815495706,-12.598132608073172 A 177.26963651103807 177.26963651103807 0 0 0 24.018736134675446,-6.953439040707552 Z M 77.44233945211393,-12.833208221527968 L 77.39978932667543,-11.834113888231457 A 176.26963651103807 176.26963651103807 0 0 1 111.37799555203742,-7.044049690163197 L 110.6720571580366,-4.128290615089345 L 118.29908979287654,-5.882819950006899 L 112.31924674403852,-10.931728456928333 L 111.6133083500377,-8.01596938185448 A 177.26963651103807 177.26963651103807 0 0 0 77.44233945211393,-12.833208221527968"/><text text-anchor="middle" pointer-events="none" font-size="8px" fill="#000000" x="67.75541971617018" y="-9.480751995419212" transform="rotate(180 67.75541971617018 -12.480751995419212)" font-family="sans-serif">trek</text></g><g class="relationship" transform="translate(-41.95221866112297 -182.05984658748173) rotate(466.386492219396)"><path class="outline" fill="#A5ABB6" stroke="none" d="M 21.40063509461097,12.933012701892217 L 21.90063509461097,12.06698729810778 A 97.57340189796388 97.57340189796388 0 0 0 45.5856320675472,21.855248465010803 L 45.328372368820126,22.82159076844725 A 98.57340189796388 98.57340189796388 0 0 1 21.40063509461097,12.933012701892217 Z M 91.58198737922527,23.899369259914323 L 91.37001689902148,22.92209319066768 A 97.57340189796388 97.57340189796388 0 0 0 115.48522256924285,14.247648322987436 L 114.1078629921166,11.582525324831707 L 121.93340282779393,11.477996476052125 L 117.3217020054112,17.80114565386174 L 115.94434242828494,15.136022655706013 A 98.57340189796388 98.57340189796388 0 0 1 91.58198737922527,23.899369259914323"/><text text-anchor="middle" pointer-events="none" font-size="8px" fill="#000000" x="68.4026990697772" y="28.612730299583802" transform="rotate(180 68.4026990697772 25.612730299583802)" font-family="sans-serif">twowheeler</text></g><g class="relationship" transform="translate(-41.95221866112297 -182.05984658748173) rotate(466.386492219396)"><path class="outline" fill="#A5ABB6" stroke="none" d="M 25 0.5 L 57.56552119787915 0.5 L 57.56552119787915 -0.5 L 25 -0.5 Z M 79.57723994787915 0.5 L 112.1427611457583 0.5 L 112.1427611457583 3.5 L 119.1427611457583 0 L 112.1427611457583 -3.5 L 112.1427611457583 -0.5 L 79.57723994787915 -0.5 Z"/><text text-anchor="middle" pointer-events="none" font-size="8px" fill="#000000" x="68.57138057287915" y="3" transform="rotate(180 68.57138057287915 0)" font-family="sans-serif">road</text></g><g class="relationship" transform="translate(-41.95221866112297 -182.05984658748173) rotate(466.386492219396)"><path class="outline" fill="#A5ABB6" stroke="none" d="M 21.40063509461097,-12.933012701892217 L 21.90063509461097,-12.06698729810778 A 97.57340189796388 97.57340189796388 0 0 1 58.824879805285335,-24.415572824360083 L 58.70330511374478,-25.408155110307604 A 98.57340189796388 98.57340189796388 0 0 0 21.40063509461097,-12.933012701892217 Z M 78.10109462272969,-25.860152652771845 L 78.02588408483214,-24.862984976305555 A 97.57340189796388 97.57340189796388 0 0 1 115.48522256924285,-14.247648322987436 L 114.1078629921166,-11.582525324831707 L 121.93340282779393,-11.477996476052125 L 117.3217020054112,-17.80114565386174 L 115.94434242828494,-15.136022655706013 A 98.57340189796388 98.57340189796388 0 0 0 78.10109462272969,-25.860152652771845"/><text text-anchor="middle" pointer-events="none" font-size="8px" fill="#000000" x="68.4026990697772" y="-22.612730299583802" transform="rotate(180 68.4026990697772 -25.612730299583802)" font-family="sans-serif">trek</text></g></g><g class="layer nodes"><g class="node" aria-label="graph-node1" transform="translate(101.35467853955119,150.2870828039152)"><circle class="outline" cx="0" cy="0" r="25" fill="#57C7E3" stroke="#23b3d7" stroke-width="2px"/><text class="caption" text-anchor="middle" pointer-events="none" x="0" y="5" font-size="10px" fill="#2A2C34" font-family="sans-serif"> Darjeeling</text></g><g class="node" aria-label="graph-node0" transform="translate(164.27154246945975,20.96050099078006)"><circle class="outline" cx="0" cy="0" r="25" fill="#57C7E3" stroke="#23b3d7" stroke-width="2px"/><text class="caption" text-anchor="middle" pointer-events="none" x="0" y="5" font-size="10px" fill="#2A2C34" font-family="sans-serif"> Rimbik</text></g><g class="node" aria-label="graph-node4" transform="translate(62.911605526464065,-84.23522341394717)"><circle class="outline" cx="0" cy="0" r="25" fill="#F16667" stroke="#eb2728" stroke-width="2px"/><text class="caption" text-anchor="middle" pointer-events="none" x="0" y="5" font-size="10px" fill="#FFFFFF" font-family="sans-serif"> Sirikhola</text></g><g class="node" aria-label="graph-node8" transform="translate(-41.95221866112297,-182.05984658748173)"><circle class="outline" cx="0" cy="0" r="25" fill="#F16667" stroke="#eb2728" stroke-width="2px"/><text class="caption" text-anchor="middle" pointer-events="none" x="0" y="5" font-size="10px" fill="#FFFFFF" font-family="sans-serif"> Rammam</text></g><g class="node" aria-label="graph-node5" transform="translate(-82.61709490282627,-43.77209069069207)"><circle class="outline" cx="0" cy="0" r="25" fill="#F16667" stroke="#eb2728" stroke-width="2px"/><text class="caption" text-anchor="middle" pointer-events="none" x="0" y="5" font-size="10px" fill="#FFFFFF" font-family="sans-serif"> Gurdum</text></g><g class="node" aria-label="graph-node3" transform="translate(-164.54868059025551,72.93756223461176)"><circle class="outline" cx="0" cy="0" r="25" fill="#D9C8AE" stroke="#c0a378" stroke-width="2px"/><text class="caption" text-anchor="middle" pointer-events="none" x="0" y="5" font-size="10px" fill="#2A2C34" font-family="sans-serif"> Sandakp…</text></g></g></svg>